# xmcd CD database file
#
# Track frame offsets:
#	150
#	19653
#	38010
#	64735
#	83114
#	101807
#	123913
#	146980
#	166687
#	188936
#	212636
#	239609
#
# Disc length: 3587 seconds
#
# Revision: 0
# Processed by: cddbd v1.5.2PL0 Copyright (c) Steve Scherf et al.
# Submitted via: CDex 1.51
#
DISCID=a40e010c
DTITLE=Marion Meadows - Secrets
DYEAR=1900
DGENRE=Jazz
TTITLE0=Secrets
TTITLE1=Let The Top Down
TTITLE2=You Lift My Heart
TTITLE3=Soul Sugar
TTITLE4=The Child In Me
TTITLE5=Sand Dancers
TTITLE6=Playtime
TTITLE7=Flirt
TTITLE8=Friends
TTITLE9=Urban Angels
TTITLE10=The Shade Tree
TTITLE11=Here To Stay
EXTD=
EXTT0=
EXTT1=
EXTT2=
EXTT3=
EXTT4=
EXTT5=
EXTT6=
EXTT7=
EXTT8=
EXTT9=
EXTT10=
EXTT11=
PLAYORDER=
